; NON-PLATED HOLES START AT T1
; THROUGH (PLATED) HOLES START AT T100
M48
INCH
T100C0.022334
T101C0.038000
T102C0.040000
%
T100
X001902Y019381
X010876Y015387
X001902Y015387
X010876Y018382
X010876Y005402
X010876Y008397
X001902Y013390
X010876Y014388
X010876Y007399
X010876Y010394
X001902Y005402
X001902Y011393
X001902Y017384
X010876Y006400
X001902Y014388
X001902Y018382
X010876Y012391
X001902Y009396
X001902Y007399
X010876Y019381
X001902Y010394
X010876Y016385
X010876Y011393
X001902Y006400
X001902Y012391
X001902Y016385
X010876Y017384
X001902Y008397
X010876Y009396
X010876Y013390
T101
X032615Y011388
X032619Y019261
X014903Y019262
X014902Y011387
T102
X034902Y002387
X021902Y007387
X023902Y003387
X020902Y003387
X024902Y007387
X022902Y003387
X021902Y003387
X035902Y014387
X024902Y003387
X034902Y006387
X025902Y003387
X020902Y007387
X034902Y004387
X023902Y007387
X035902Y016387
X022902Y007387
X025902Y007387
T00
M30
